<?xml version="1.0" encoding="UTF-8"?>
<svg id="Camada_2" data-name="Camada 2" xmlns="http://www.w3.org/2000/svg" viewBox="0 0 175.02 174.92">
  <g id="Camada_1-2" data-name="Camada 1">
    <path d="m175.02,87.51c0,48.21-39.3,87.45-87.57,87.41C38.64,174.88-.51,134.65,0,86.51.51,39.38,39.13.01,87.54,0c48.23-.01,87.47,39.24,87.47,87.51Zm-63.41-17.75c6.29,4.28,12.9,6.95,20.29,7.83v-22.5c-.34-.03-.61-.05-.88-.07-5.19-.42-9.98-1.79-14.18-5.13-5.01-3.97-8.47-8.83-9.88-15.08-.23-1.03-.73-1.32-1.73-1.31-3.63.05-7.26.02-10.89.02-.45,0-.9.07-1.46.12-.03.75-.09,1.38-.09,2.02,0,23.91,0,47.82,0,71.74,0,6.63-4.52,12.71-10.95,14.59-7.01,2.04-13.56-.75-17.47-6.23-3.64-5.1-3.44-12.1.06-17.2,3.62-5.28,10-7.83,16.25-6.48.44.09.88.15,1.4.24v-18.72c-2.98-.52-5.92-.58-8.83-.28-16.08,1.68-29.33,15.6-30.1,31.71-.5,10.41,2.63,19.46,10.41,26.75,5.81,5.45,12.58,8.69,20.49,9.52,15.8,1.65,30.78-8.01,35.86-23.09,1.14-3.38,1.72-6.84,1.72-10.41,0-12.05,0-24.09,0-36.14v-1.88Z"/>
  </g>
</svg>