<?xml version="1.0" encoding="UTF-8"?>
<svg id="Camada_2" data-name="Camada 2" xmlns="http://www.w3.org/2000/svg" viewBox="0 0 165.84 158.49">
  <g id="Camada_1-2" data-name="Camada 1">
    <g>
      <path d="m42.02,33.65c.82,0,1.38,0,1.95,0,2.61,0,5.23.04,7.84-.03.95-.03,1.54.3,2.09,1.03,5.76,7.65,11.53,15.29,17.31,22.92,8.16,10.77,16.33,21.53,24.49,32.31,4.05,5.35,8.07,10.74,12.12,16.09,4.43,5.85,8.88,11.68,13.31,17.53.24.32.46.66.79,1.12-.46.03-.77.07-1.08.07-2.57,0-5.14-.04-7.71.03-1.01.03-1.64-.28-2.27-1.1-6.66-8.79-13.36-17.54-20.06-26.3-7.28-9.52-14.57-19.02-21.85-28.54-6.95-9.09-13.9-18.18-20.86-27.26-1.82-2.37-3.69-4.69-5.53-7.04-.15-.19-.26-.4-.53-.82Z"/>
      <path d="m165.84,158.49V0H0v158.49h165.84ZM19.16,22.23h1.69c12.36,0,24.73,0,37.09-.01.72,0,1.21.15,1.68.78,3.24,4.36,6.54,8.67,9.81,13.01,5.41,7.19,10.81,14.38,16.22,21.57.25.33.52.63.86,1.05,1.25-1.42,2.46-2.77,3.65-4.14,6.86-7.83,13.71-15.66,20.57-23.49,2.3-2.62,4.61-5.22,6.89-7.86.59-.68,1.26-.95,2.17-.94,4.52.06,9.04.06,13.56.08,1.36,0,2.73,0,4.22,0-.04.81-.63,1.29-1.09,1.82-2.33,2.7-4.69,5.37-7.04,8.06-4.59,5.24-9.18,10.49-13.77,15.73-6.09,6.96-12.19,13.92-18.28,20.87-.54.62-1.1,1.21-1.72,1.9,1.06,1.42,2.05,2.78,3.07,4.13,10.94,14.45,21.87,28.89,32.81,43.34,4.25,5.62,8.51,11.24,12.76,16.86.3.4.51.88.87,1.49-1.16,0-2.06,0-2.96,0-11.12.02-22.24,0-33.35.08-1.79.01-3.04-.37-4.22-1.96-5.28-7.13-10.74-14.13-16.13-21.17-3.63-4.74-7.28-9.47-10.9-14.21-.59-.78-1.13-1.6-1.76-2.48-1.39,1.58-2.7,3.06-4,4.55-6.26,7.14-12.52,14.28-18.78,21.43-3.82,4.37-7.63,8.75-11.43,13.14-.47.55-.94.78-1.71.71-1.44-.13-2.9-.11-4.35-.11-4.27-.02-8.55-.02-12.82-.04-.33,0-.65-.04-1.29-.08,3.81-4.53,7.61-8.74,11.33-13.04,3.72-4.3,7.51-8.53,11.25-12.8,3.77-4.3,7.53-8.62,11.3-12.93,3.73-4.27,7.46-8.54,11.22-12.84-15.95-20.77-31.77-41.5-47.61-62.22.07-.09.14-.18.2-.27Z"/>
    </g>
  </g>
</svg>